<svg width="813" height="707" viewBox="0 0 813 707" fill="none" xmlns="http://www.w3.org/2000/svg">
<g clip-path="url(#clip0)">
<path d="M665.838 557.648L649.05 553.292C634.496 609.381 596.293 656.475 544.233 682.499L551.989 698.013C608.533 669.75 650.029 618.587 665.838 557.648Z" fill="#63CD32" fill-opacity="0.3"/>
<path d="M31.4022 467.45C32.4602 461.979 33.4852 456.848 34.4807 451.997L82.3946 469.625L88.3834 453.348L38.1368 434.862C44.8107 404.897 49.9895 388.887 54.3081 377.161C59.0724 364.203 68.6011 353.877 81.1406 348.084C93.6801 342.291 107.722 341.729 120.686 346.502C133.649 351.266 143.977 360.795 149.77 373.335C155.561 385.872 156.126 399.916 151.362 412.873C150.748 414.54 149.844 416.751 148.686 419.431L106.563 403.932L100.574 420.21L141.447 435.248C135.064 448.693 126.3 466.226 116.336 485.117H1.36109V502.939C1.36109 507.776 1.50505 512.671 1.78948 517.485C7.48864 614.362 69.5671 695.422 154.963 729.549H-6.01868V746.893H245.317H457.731H709.066V729.549H548.06C637.989 693.577 701.684 605.562 701.684 502.939V501.547C712.762 499.772 723.262 495.445 732.506 488.783C748.257 477.428 758.646 460.624 761.763 441.461C764.883 422.293 760.348 403.062 748.996 387.315C740.944 376.139 729.968 367.72 717.621 362.642C721.985 356.402 724.76 349.069 725.456 341.415C725.848 337.183 725.617 332.894 724.767 328.65C719.932 304.874 696.651 289.452 672.866 294.282C668.754 295.118 664.832 296.521 661.195 298.425C661.129 298.006 661.084 297.586 661.013 297.164C657.04 273.917 644.254 253.606 625.006 239.975C585.273 211.837 530.057 221.27 501.917 261.003C497.396 267.389 493.825 274.272 491.194 281.444C451.966 271.908 411.721 295.007 400.477 334.152C395.584 351.166 396.812 369.444 403.934 385.619L419.807 378.631C414.316 366.163 413.371 352.068 417.145 338.944C421.454 323.94 431.349 311.511 445.005 303.949C457.868 296.831 472.615 294.833 486.83 298.222C483.784 317.566 487.13 337.802 497.045 355.412L512.159 346.903C498.754 323.095 500.289 293.314 516.072 271.027C527.022 255.562 543.345 245.286 562.026 242.094C580.705 238.903 599.512 243.177 614.979 254.131C630.445 265.084 640.723 281.404 643.914 300.085C647.105 318.766 642.83 337.574 631.877 353.039L646.032 363.062C655.297 349.981 660.71 334.979 661.986 319.413C665.774 315.271 670.75 312.411 676.319 311.279C690.737 308.356 704.839 317.698 707.765 332.084C708.282 334.658 708.422 337.26 708.185 339.832C707.559 346.747 704.14 353.23 698.89 357.718C691.627 356.803 684.183 356.936 676.791 358.294L679.923 375.353C700.893 371.5 722.481 380.177 734.927 397.455C752.765 422.202 747.132 456.86 722.367 474.714C713.117 481.379 702.219 484.971 690.839 485.115H595.537C621.554 447.134 643.5 445.127 643.741 445.112L643.564 445.119L643.073 427.782C639.536 427.882 608.266 430.385 574.91 485.115H570.586C570.893 482.309 571.093 479.48 571.138 476.634C571.519 451.926 562.187 428.627 544.86 411.03C527.529 393.427 504.384 383.734 479.686 383.734C464.247 383.734 448.965 387.659 435.487 395.091C431.521 397.288 427.33 399.364 423.04 401.258C401.006 410.971 377.731 414.882 355.729 412.561C353.908 412.37 352.05 412.28 350.179 412.251C329.945 395.34 307.039 380.815 289.259 370.554C288.9 351.168 290.613 331.626 294.385 312.444L296.42 302.099H285.877C281.012 302.099 268.581 303.214 258.257 313.539C257.272 314.525 256.354 315.561 255.489 316.629C254.623 315.561 253.706 314.525 252.721 313.539C242.394 303.212 229.966 302.099 225.101 302.099H214.557L216.59 312.442C220.362 331.626 222.074 351.166 221.717 370.544C206.959 379.056 188.674 390.5 171.328 403.808C172.99 391.039 171.049 378.035 165.516 366.059C161.593 357.567 156.109 350.117 149.402 343.998C153.242 341.509 156.928 338.59 160.166 335.858C172.631 325.336 187.088 309.846 200.877 292.244C214.663 274.647 226.237 256.903 233.466 242.28C239.447 230.179 246.253 213.189 236.313 205.393C228.217 199.051 214.823 204.346 196.371 221.121C196.626 218.772 196.825 216.478 196.95 214.261C198.405 188.353 190.169 179.771 183.002 177.135C170.329 172.473 156.17 184.336 143.592 203.142C140.496 177.421 133.664 164.195 123.178 163.768C110.649 163.264 104.733 180.611 101.447 193.704C97.4732 209.525 94.7867 230.537 93.8796 252.872C92.9708 275.214 93.9403 296.382 96.613 312.474C97.3258 316.768 98.2693 321.522 99.6429 326.014C90.841 326.422 82.1118 328.529 73.8701 332.336C57.123 340.071 44.3961 353.865 38.0344 371.167C32.1237 387.215 24.6902 410.814 14.3741 464.153L31.4022 467.45ZM160.277 435.935C166.753 429.756 173.852 423.789 181.19 418.14C169.88 436.799 162.073 458.525 162.073 481.567C162.073 482.753 162.117 483.934 162.141 485.119H135.921C146.069 465.621 154.503 448.435 160.277 435.935ZM288.608 457.764H256.861V475.108H286.121C286.114 478.483 286.359 481.827 286.881 485.119H228.445C228.432 483.934 228.413 482.753 228.413 481.567C228.413 441.478 239.442 408.026 248.367 389.391V391.889H248.385L248.383 389.36C251.132 383.623 253.685 379.275 255.648 376.597C260.961 383.564 270.685 402.479 277.085 431.563L294.025 427.837C290.662 412.549 285.871 397.779 280.347 385.491C294.122 393.436 311.101 404.017 327.198 416.16C314.263 420.987 303.054 430.047 295.541 442.181C292.512 447.051 290.197 452.302 288.608 457.764ZM179.485 485.119C179.457 483.934 179.417 482.755 179.417 481.567C179.417 447.238 199.914 419.143 212.133 405.452C218.087 398.78 223.982 393.283 229.449 388.859C228.349 391.469 227.315 394.079 226.358 396.622C220.649 411.787 211.071 442.989 211.071 481.567C211.071 482.753 211.09 483.934 211.103 485.119H179.485ZM684.341 502.941C684.341 627.896 582.684 729.551 457.731 729.551H245.317C125.497 729.551 26.1332 635.954 19.1037 516.467C18.8401 511.991 18.7066 507.44 18.7066 502.941V502.462H684.342V502.941H684.341ZM437.298 475.189C437.298 451.676 456.433 432.55 479.957 432.55C503.47 432.55 522.598 451.678 522.598 475.189C522.598 478.566 522.163 481.88 521.389 485.119H438.512C437.733 481.889 437.298 478.575 437.298 475.189ZM430.038 417.131C434.807 415.026 439.469 412.715 443.875 410.273C454.782 404.26 467.166 401.081 479.684 401.081C499.697 401.081 518.455 408.938 532.501 423.201C546.543 437.461 554.105 456.344 553.794 476.363C553.747 479.308 553.508 482.234 553.12 485.119H539.106C539.649 481.854 539.938 478.542 539.938 475.189C539.938 442.115 513.028 415.206 479.953 415.206C446.868 415.206 419.951 442.115 419.951 475.189C419.951 478.545 420.24 481.858 420.785 485.119H304.532C303.715 481.449 303.35 477.675 303.465 473.842C303.701 465.896 306.053 458.116 310.274 451.324C318.25 438.441 331.909 430.328 346.809 429.62C349.218 429.506 351.604 429.572 353.904 429.815C378.919 432.446 405.24 428.063 430.038 417.131ZM270.519 325.808C271.983 324.344 273.535 323.215 275.075 322.344C273.16 335.151 272.104 348.063 271.898 360.946C268.812 359.312 266.204 357.968 264.159 356.933V341.164C264.159 335.362 266.417 329.909 270.519 325.808ZM235.897 322.344C237.437 323.215 238.99 324.344 240.453 325.808C244.555 329.909 246.813 335.362 246.813 341.164V356.931C244.768 357.965 242.151 359.314 239.075 360.943C238.87 348.061 237.814 335.151 235.897 322.344ZM223.028 222.38C219.788 232.581 208.829 253.971 187.222 281.553C181.915 288.328 176.821 294.381 172.015 299.754C176.221 291.337 180.059 282.393 183.361 273.417C185.999 266.253 188.263 259.126 190.184 252.159C205.376 235.306 216.654 226.254 223.028 222.38ZM176.996 193.463C180.671 196.966 183.072 223.982 167.088 267.427C151.1 310.875 131.76 329.892 126.692 330.176C123.017 326.673 120.615 299.657 136.601 256.211C152.588 212.763 171.928 193.747 176.996 193.463ZM111.209 253.581C112.63 218.575 118.15 195.183 122.294 185.314C124.705 192.599 127.523 207.391 128.059 231.223L128.154 231.222C125.312 237.419 122.682 243.813 120.324 250.222C116.622 260.281 113.455 270.752 111.102 280.938C110.809 272.782 110.798 263.654 111.209 253.581Z" fill="#63CD32" fill-opacity="0.3"/>
<path d="M62.078 406.042L84.9897 414.472L90.9785 398.195L68.0668 389.765L62.078 406.042Z" fill="#63CD32" fill-opacity="0.3"/>
<path d="M706.13 455.01C699.879 459.511 692.251 461.306 684.646 460.072L681.864 477.191C684.372 477.598 686.883 477.801 689.374 477.801C698.979 477.801 708.318 474.806 716.265 469.086C726.274 461.878 732.877 451.201 734.859 439.026C736.838 426.85 733.958 414.634 726.751 404.624L712.677 414.76C717.179 421.011 718.976 428.64 717.739 436.242C716.501 443.842 712.378 450.507 706.13 455.01Z" fill="#63CD32" fill-opacity="0.3"/>
<path d="M556.703 288.232L561.497 271.563C541.617 265.852 520.787 277.373 515.071 297.255C509.356 317.137 520.883 337.962 540.764 343.679L545.554 327.009C534.864 323.936 528.668 312.737 531.74 302.047C534.813 291.356 546.012 285.159 556.703 288.232Z" fill="#63CD32" fill-opacity="0.3"/>
</g>
<defs>
<clipPath id="clip0">
<rect width="888" height="888" fill="white" transform="translate(-75)"/>
</clipPath>
</defs>
</svg>
