<svg width="298" height="74" viewBox="0 0 298 74" fill="none" xmlns="http://www.w3.org/2000/svg">
<g clip-path="url(#clip0)">
<path d="M60 44.065C60 60.5449 46.5458 73.9535 30 73.9535C26.0596 73.9562 22.1573 73.1849 18.5163 71.6838C14.8753 70.1827 11.5671 67.9813 8.78079 65.2053C5.9945 62.4294 3.78482 59.1334 2.27813 55.506C0.771442 51.8785 -0.00269318 47.9907 0 44.065C0.000389099 43.7366 0.131477 43.4219 0.36451 43.1897C0.597546 42.9575 0.913494 42.8269 1.24305 42.8265H58.7569C59.0865 42.8269 59.4025 42.9575 59.6355 43.1897C59.8685 43.4219 59.9996 43.7366 60 44.065V44.065ZM2.51389 45.3034C2.59747 47.162 2.8704 49.0072 3.32846 50.8108H56.6686C57.1293 49.0077 57.4032 47.1622 57.4861 45.3034H2.51389ZM56.3893 51.8307H3.60924C5.29139 57.504 8.77056 62.4829 13.5271 66.0238C18.2836 69.5646 24.0623 71.4775 30 71.4766C42.4656 71.4766 53.0199 63.1747 56.3893 51.8307Z" fill="#63CD32"/>
<path d="M21.3513 65.9838C18.546 64.7786 16.0522 62.9542 14.0582 60.6483C13.9696 60.5457 13.8437 60.4824 13.7082 60.4723C13.5727 60.4622 13.4388 60.5061 13.3358 60.5944C13.2328 60.6827 13.1693 60.8082 13.1591 60.9431C13.149 61.0781 13.1931 61.2116 13.2817 61.3142C15.3802 63.7376 18.0034 65.6551 20.9535 66.9221C21.0174 66.949 21.086 66.9629 21.1553 66.9629C21.2734 66.9632 21.388 66.9228 21.4796 66.8485C21.5712 66.7743 21.6342 66.6708 21.6579 66.5555C21.6817 66.4403 21.6647 66.3204 21.6099 66.2162C21.5551 66.112 21.4658 66.0299 21.3571 65.9838H21.3513Z" fill="#63CD32"/>
<path d="M4.65926 16.0501C2.25358 13.5194 2.86926 9.78511 2.89705 9.63941C2.93455 9.42377 3.02874 9.22188 3.17003 9.0543C3.31132 8.88671 3.49465 8.75943 3.70137 8.6854C3.90809 8.61137 4.13082 8.59324 4.34686 8.63285C4.5629 8.67247 4.76455 8.76841 4.93127 8.91092L10.389 13.5747L8.73501 5.40396C8.69088 5.186 8.70647 4.96023 8.78013 4.75034C8.85379 4.54045 8.98281 4.35419 9.15365 4.21111C9.32449 4.06803 9.53083 3.97342 9.75103 3.9372C9.97123 3.90098 10.1972 3.92449 10.4051 4.00526C10.5689 4.06791 14.4457 5.60794 15.5235 9.29265C16.0178 10.974 15.8482 12.7807 15.0234 14.6835C16.0884 14.5172 17.1776 14.5965 18.2071 14.9151C20.0015 15.4979 21.3761 16.8442 22.2916 18.9116C22.5699 19.559 22.8068 20.2233 23.0009 20.9004C23.0009 20.915 23.0096 20.931 23.014 20.9456C24.3814 25.5992 25.1682 33.4028 25.019 37.5056C24.9974 38.1803 24.7842 38.835 24.4043 39.3938C24.0243 39.9527 23.493 40.3927 22.8722 40.6629C22.4117 40.8666 21.9136 40.9723 21.4098 40.9733C20.5578 40.9724 19.7339 40.6692 19.086 40.118C17.198 38.5241 14.6066 35.8447 12.3209 33.1245C10.5499 31.0148 9.09477 29.045 8.11349 27.4277C7.74823 26.837 7.42097 26.2239 7.13367 25.5919C6.21673 23.5259 6.14507 21.6085 6.92015 19.8936C7.2479 19.1812 7.69942 18.5321 8.25388 17.9763C6.7783 17.6557 5.57619 17.0147 4.65926 16.0501ZM12.9395 17.9442L12.9014 17.9631L12.8576 17.985L12.8181 18.0039H12.8064L12.7786 18.0141L12.7289 18.0331L12.7025 18.0433C12.6528 18.0593 10.0702 18.9262 9.17958 20.9208C8.70576 21.98 8.77888 23.1806 9.4048 24.591C9.58624 24.9899 9.78882 25.379 10.0117 25.7565L12.081 24.6565C12.1404 24.6226 12.2061 24.6009 12.274 24.5928C12.342 24.5846 12.4109 24.5901 12.4767 24.6089C12.5425 24.6278 12.6039 24.6596 12.6571 24.7024C12.7104 24.7453 12.7544 24.7984 12.7867 24.8585C12.819 24.9187 12.8389 24.9847 12.8451 25.0526C12.8513 25.1205 12.8438 25.189 12.823 25.254C12.8022 25.319 12.7685 25.3791 12.724 25.4309C12.6794 25.4827 12.6249 25.5251 12.5636 25.5555L10.544 26.6293C11.632 28.2844 12.8208 29.8716 14.1035 31.382L18.0828 29.5564C18.2061 29.4997 18.347 29.4943 18.4744 29.5411C18.6018 29.588 18.7052 29.6833 18.7621 29.8062C18.8189 29.9291 18.8244 30.0694 18.7773 30.1964C18.7303 30.3233 18.6346 30.4264 18.5113 30.483L14.7879 32.1993C16.8353 34.5844 19.0553 36.8529 20.6903 38.2327C20.8507 38.3687 21.0463 38.4569 21.2547 38.4871C21.4631 38.5174 21.6759 38.4885 21.8686 38.4038C22.0613 38.319 22.2261 38.1819 22.3441 38.0081C22.4621 37.8343 22.5286 37.6309 22.5358 37.4211C22.6718 33.6927 21.9991 26.7662 20.8087 22.2918L16.8383 24.0679C16.7726 24.0977 16.7013 24.1131 16.6291 24.1131C16.5121 24.1131 16.3986 24.0731 16.3075 23.9998C16.2165 23.9266 16.1534 23.8244 16.1288 23.7104C16.1041 23.5964 16.1195 23.4775 16.1722 23.3734C16.2249 23.2693 16.3119 23.1863 16.4185 23.1383L20.525 21.3011C20.3825 20.8327 20.2141 20.3726 20.0205 19.9228C19.3946 18.5124 18.5581 17.6499 17.4495 17.2857C15.3583 16.5907 12.9643 17.9209 12.9395 17.9369V17.9442ZM11.7578 7.81673L12.8839 13.3737C13.3489 12.1469 13.4381 11.0221 13.1457 10.0095C12.8847 9.16757 12.4061 8.40884 11.7578 7.80944V7.81673ZM5.53671 12.6947C5.71272 13.3157 6.03455 13.886 6.47558 14.3586C7.06054 14.9734 7.87609 15.3819 8.9222 15.5839L5.53671 12.6947Z" fill="#63CD32"/>
<path d="M37.4905 22.0893C39.3273 17.5727 43.4952 14.599 47.7435 14.599H47.8619C47.8751 14.564 47.8897 14.5276 47.9043 14.4926C48.7394 12.4572 51.2606 11.5481 53.5346 12.466C54.5814 12.8772 55.4458 13.6483 55.971 14.6398C56.2336 15.1246 56.3864 15.661 56.4185 16.211C56.4505 16.761 56.3612 17.3114 56.1568 17.8233C55.9865 18.2439 55.7385 18.6289 55.4255 18.9583C57.2521 21.9465 57.5139 25.9765 56.0515 29.584C54.2132 34.1007 50.1023 37.0685 45.8321 37.0758C45.1682 38.1642 43.9207 38.7951 42.5724 38.7951C42.0006 38.7942 41.4344 38.6828 40.9052 38.4672C38.8169 37.6251 37.7391 35.4076 38.5025 33.5368C38.5244 33.4858 38.5463 33.4348 38.5697 33.3838C36.3293 30.3431 35.8906 26.0217 37.4905 22.0893ZM41.0368 32.4805C41.2504 32.7142 41.3659 33.0206 41.3597 33.3366C41.3534 33.6526 41.2258 33.9542 41.0032 34.1793C40.9201 34.2628 40.8545 34.3618 40.8102 34.4707C40.5659 35.0696 41.0383 35.8505 41.8338 36.1754C42.6294 36.5003 43.5229 36.2672 43.7672 35.6669C43.7835 35.6218 43.7967 35.5755 43.8066 35.5285C43.8731 35.233 44.046 34.9721 44.2926 34.7952C44.5392 34.6182 44.8424 34.5375 45.1448 34.5684C48.6546 34.9224 52.1834 32.4907 53.7423 28.6574C55.0585 25.4287 54.6607 21.8212 52.7347 19.4682C52.615 19.3221 52.5304 19.1506 52.4874 18.967C52.4443 18.7833 52.4439 18.5923 52.4863 18.4084C52.5286 18.2246 52.6125 18.0528 52.7316 17.9062C52.8507 17.7596 53.0018 17.642 53.1734 17.5625C53.4747 17.4334 53.7153 17.1948 53.8461 16.8952C53.9115 16.7131 53.9371 16.5192 53.9212 16.3265C53.9054 16.1338 53.8483 15.9467 53.754 15.7777C53.5024 15.3098 53.0903 14.9478 52.5928 14.7578C51.6072 14.3586 50.5133 14.6616 50.2047 15.4178C50.1461 15.5671 50.1188 15.7267 50.1243 15.8869C50.1291 16.0678 50.0941 16.2475 50.0216 16.4133C49.9492 16.5792 49.8411 16.7273 49.705 16.847C49.5689 16.9668 49.4081 17.0553 49.234 17.1064C49.0598 17.1576 48.8765 17.17 48.697 17.1429C48.3737 17.0939 48.0471 17.0696 47.7201 17.07C44.4706 17.07 41.243 19.4362 39.7865 23.0145C38.4118 26.418 38.9002 30.1319 41.0368 32.4805Z" fill="#63CD32"/>
<path d="M42.5973 30.8633C42.6672 30.8981 42.7443 30.9161 42.8225 30.9157C42.9378 30.9152 43.0496 30.8759 43.1398 30.8041C43.2299 30.7323 43.293 30.6323 43.3189 30.5203C43.3448 30.4083 43.332 30.2908 43.2825 30.187C43.233 30.0832 43.1497 29.9991 43.0462 29.9483C42.3542 29.6079 41.8259 29.008 41.5772 28.2801C41.3286 27.5522 41.3798 26.7557 41.7198 26.0654C41.7769 25.9442 41.7839 25.8055 41.7393 25.6792C41.6946 25.5529 41.6018 25.4491 41.481 25.3904C41.3602 25.3316 41.2211 25.3226 41.0936 25.3652C40.9662 25.4078 40.8607 25.4987 40.7999 25.6181C40.5729 26.0809 40.4396 26.5836 40.4076 27.0977C40.3757 27.6117 40.4457 28.127 40.6137 28.6141C40.7817 29.1012 41.0444 29.5505 41.3867 29.9365C41.7291 30.3224 42.1444 30.6373 42.609 30.8633H42.5973Z" fill="#63CD32"/>
<path d="M31.1714 38.5707C31.1717 39.0362 31.0334 39.4913 30.774 39.8785C30.5146 40.2657 30.1457 40.5675 29.7141 40.7458C29.2825 40.9241 28.8075 40.9708 28.3492 40.88C27.8909 40.7893 27.4699 40.5651 27.1395 40.236C26.8091 39.9068 26.5842 39.4874 26.4931 39.0308C26.402 38.5743 26.4489 38.101 26.6278 37.671C26.8068 37.241 27.1097 36.8735 27.4984 36.6151C27.887 36.3566 28.3438 36.2188 28.811 36.2191C29.4367 36.2203 30.0364 36.4684 30.4788 36.9092C30.9212 37.3499 31.1702 37.9474 31.1714 38.5707ZM30.1477 38.5707C30.1477 38.307 30.0692 38.0491 29.9221 37.8299C29.775 37.6106 29.5659 37.4397 29.3213 37.3389C29.0767 37.238 28.8076 37.2117 28.548 37.2633C28.2884 37.3148 28.05 37.4419 27.8629 37.6285C27.6758 37.8151 27.5485 38.0528 27.497 38.3115C27.4455 38.5702 27.4723 38.8383 27.5738 39.0819C27.6753 39.3254 27.847 39.5335 28.0672 39.6799C28.2875 39.8262 28.5463 39.9041 28.811 39.9038C29.1657 39.9034 29.5057 39.7628 29.7563 39.5128C30.0069 39.2629 30.1477 38.924 30.1477 38.5707Z" fill="#63CD32"/>
<path d="M40.7136 8.59623C40.7136 8.05287 40.8753 7.52172 41.1783 7.0699C41.4812 6.61807 41.9118 6.26587 42.4156 6.05781C42.9194 5.84974 43.4738 5.79515 44.0088 5.90095C44.5437 6.00674 45.0352 6.26816 45.421 6.65216C45.8069 7.03617 46.0698 7.52552 46.1765 8.05836C46.2833 8.5912 46.2291 9.14361 46.0208 9.64577C45.8125 10.1479 45.4594 10.5773 45.0062 10.8796C44.553 11.1819 44.0201 11.3435 43.4747 11.3441C42.7429 11.3441 42.0411 11.0547 41.5234 10.5394C41.0057 10.0242 40.7144 9.32527 40.7136 8.59623ZM41.7373 8.59623C41.737 8.93793 41.8384 9.27204 42.0287 9.55633C42.219 9.84063 42.4896 10.0623 42.8063 10.1934C43.1231 10.3245 43.4717 10.3591 43.8082 10.2928C44.1446 10.2266 44.4538 10.0624 44.6966 9.82109C44.9395 9.57978 45.105 9.27216 45.1724 8.93711C45.2398 8.60207 45.2059 8.25465 45.0751 7.93877C44.9444 7.62289 44.7225 7.35272 44.4376 7.16244C44.1528 6.97215 43.8177 6.87028 43.4747 6.8697C43.0145 6.86932 42.5731 7.05095 42.2473 7.3747C41.9215 7.69844 41.7381 8.1378 41.7373 8.59623Z" fill="#63CD32"/>
<path d="M0.873081 31.3339C0.872793 30.7475 1.04711 30.1742 1.37398 29.6866C1.70084 29.199 2.16556 28.8189 2.70932 28.5945C3.25308 28.3701 3.85143 28.3115 4.42865 28.426C5.00587 28.5406 5.53601 28.8231 5.95198 29.2379C6.36795 29.6528 6.65105 30.1812 6.76544 30.7564C6.87984 31.3316 6.8204 31.9277 6.59463 32.4692C6.36886 33.0107 5.98693 33.4733 5.49716 33.7985C5.00739 34.1237 4.4318 34.2968 3.84324 34.2959C3.05559 34.294 2.3008 33.9812 1.74412 33.4261C1.18745 32.8709 0.874239 32.1186 0.873081 31.3339ZM1.89677 31.3339C1.89677 31.7185 2.0113 32.0944 2.22586 32.4141C2.44041 32.7339 2.74535 32.983 3.10208 33.13C3.45881 33.2769 3.85129 33.3152 4.22984 33.2398C4.60839 33.1645 4.95599 32.9789 5.22864 32.7067C5.5013 32.4344 5.68675 32.0877 5.76153 31.7104C5.83631 31.3331 5.79705 30.9421 5.64872 30.5871C5.50039 30.232 5.24966 29.9287 4.92827 29.7157C4.60688 29.5027 4.22927 29.3894 3.84324 29.3903C3.32672 29.3918 2.83186 29.5972 2.46704 29.9615C2.10221 30.3258 1.89715 30.8193 1.89677 31.3339Z" fill="#63CD32"/>
<path d="M56.2767 37.5581C56.277 37.8847 56.1801 38.204 55.9982 38.4756C55.8163 38.7473 55.5576 38.9591 55.2549 39.0842C54.9521 39.2094 54.6189 39.2423 54.2974 39.1788C53.9759 39.1153 53.6806 38.9581 53.4487 38.7273C53.2168 38.4965 53.0589 38.2024 52.9948 37.8822C52.9308 37.5619 52.9635 37.2299 53.0889 36.9282C53.2142 36.6265 53.4266 36.3686 53.6991 36.1871C53.9716 36.0057 54.292 35.9088 54.6198 35.9088C55.0589 35.9092 55.4799 36.083 55.7905 36.3922C56.1011 36.7014 56.2759 37.1207 56.2767 37.5581ZM55.253 37.5581C55.253 37.4333 55.2159 37.3114 55.1463 37.2076C55.0767 37.1039 54.9778 37.023 54.8621 36.9753C54.7464 36.9275 54.6191 36.915 54.4962 36.9394C54.3734 36.9637 54.2606 37.0238 54.172 37.112C54.0835 37.2002 54.0232 37.3127 53.9987 37.435C53.9743 37.5574 53.9868 37.6843 54.0348 37.7995C54.0827 37.9148 54.1638 38.0133 54.268 38.0827C54.3721 38.152 54.4945 38.189 54.6198 38.189C54.7877 38.189 54.9488 38.1225 55.0675 38.0042C55.1863 37.8859 55.253 37.7254 55.253 37.5581Z" fill="#63CD32"/>
<path d="M18.558 4.77894C18.558 4.45238 18.6553 4.13317 18.8374 3.86167C19.0195 3.59017 19.2784 3.37859 19.5812 3.25369C19.8841 3.12879 20.2173 3.09619 20.5387 3.16C20.8602 3.22381 21.1554 3.38118 21.3871 3.61219C21.6188 3.8432 21.7764 4.13747 21.8402 4.45778C21.904 4.77809 21.871 5.11005 21.7453 5.41166C21.6197 5.71328 21.4071 5.97099 21.1344 6.1522C20.8618 6.33341 20.5413 6.42999 20.2135 6.4297C19.7744 6.42893 19.3536 6.25471 19.0433 5.94526C18.7329 5.63581 18.5584 5.21637 18.558 4.77894ZM19.5817 4.77894C19.5817 4.90377 19.6189 5.0258 19.6886 5.12958C19.7582 5.23336 19.8572 5.31422 19.973 5.36192C20.0888 5.40963 20.2162 5.42204 20.339 5.39758C20.4619 5.37312 20.5747 5.31289 20.6632 5.22451C20.7517 5.13614 20.8119 5.02359 20.8362 4.90112C20.8605 4.77864 20.8477 4.65175 20.7996 4.5365C20.7514 4.42125 20.67 4.32282 20.5657 4.25367C20.4614 4.18453 20.3388 4.14777 20.2135 4.14806C20.0458 4.14845 19.8851 4.21508 19.7667 4.33335C19.6482 4.45162 19.5817 4.61187 19.5817 4.77894Z" fill="#63CD32"/>
<path d="M28.4674 22.7595C26.2182 19.796 23.7628 15.243 24.902 10.3912C25.8467 6.33497 29.124 2.88338 34.6388 0.131142C34.7873 0.0574054 34.949 0.0139878 35.1146 0.00344202C35.2801 -0.00710375 35.4462 0.0154352 35.6028 0.0697336C35.7595 0.124032 35.9037 0.208994 36.027 0.319624C36.1503 0.430253 36.2501 0.564318 36.3206 0.713935C37.9292 4.12327 39.3478 7.49327 38.9529 11.2304C38.5054 15.511 35.6946 19.4449 30.3598 23.2578C30.2583 23.3302 30.1464 23.3867 30.0278 23.4254C30.2062 26.1324 30.7429 28.449 31.5999 30.1829C31.6297 30.2429 31.6473 30.3083 31.6518 30.3751C31.6562 30.442 31.6474 30.5091 31.6258 30.5725C31.6042 30.636 31.5702 30.6946 31.5259 30.745C31.4816 30.7954 31.4277 30.8365 31.3674 30.8662C31.2967 30.9003 31.2192 30.9183 31.1407 30.9186C31.0452 30.9185 30.9516 30.8919 30.8705 30.8417C30.7894 30.7915 30.7239 30.7197 30.6815 30.6345C29.747 28.7404 29.1693 26.2301 28.9924 23.3103C28.8615 23.2321 28.7465 23.1303 28.6531 23.0101C28.5917 22.9315 28.5273 22.8484 28.463 22.7624L28.4674 22.7595ZM29.0099 19.1316C29.2439 15.5897 29.9985 12.093 31.1187 9.55053C31.1449 9.48802 31.1833 9.43132 31.2317 9.38376C31.2802 9.3362 31.3376 9.29872 31.4007 9.27352C31.4638 9.24831 31.5313 9.23589 31.5993 9.23697C31.6673 9.23805 31.7344 9.25262 31.7966 9.27981C31.8589 9.30701 31.9151 9.34629 31.962 9.39537C32.0088 9.44445 32.0454 9.50233 32.0696 9.56565C32.0937 9.62897 32.105 9.69644 32.1027 9.76414C32.1004 9.83184 32.0846 9.8984 32.0562 9.95994C30.8482 12.7049 30.0834 16.6125 29.9766 20.4502C34.0114 17.3381 36.1436 14.2318 36.4843 10.9711C36.7666 8.26402 35.8277 5.61814 34.6168 2.94166C30.4826 5.22475 28.0287 7.9158 27.3194 10.9551C26.6321 13.8894 27.6484 16.7903 29.0143 19.1287L29.0099 19.1316Z" fill="#63CD32"/>
</g>
<path d="M95.224 24.872V44.816L82.048 24.872H78.772V50H82.048V30.02L95.224 50H98.5V24.872H95.224ZM121.581 30.272H118.305V41.108C118.305 45.356 116.037 47.444 112.653 47.444C109.341 47.444 107.145 45.392 107.145 41.396V30.272H103.905V41.828C103.905 47.48 107.469 50.288 112.005 50.288C114.633 50.288 117.045 49.136 118.305 47.084V50H121.581V30.272ZM127.832 44.6C127.832 48.56 129.812 50 133.304 50H136.256V47.228H133.844C131.828 47.228 131.108 46.544 131.108 44.6V32.972H136.256V30.272H131.108V25.304H127.832V30.272H125.276V32.972H127.832V44.6ZM143.501 39.272C143.501 34.7 145.877 33.296 149.009 33.296H149.873V29.912C146.741 29.912 144.617 31.28 143.501 33.476V30.272H140.225V50H143.501V39.272ZM153.655 50H156.931V30.272H153.655V50ZM155.347 27.068C156.535 27.068 157.507 26.096 157.507 24.836C157.507 23.576 156.535 22.604 155.347 22.604C154.087 22.604 153.115 23.576 153.115 24.836C153.115 26.096 154.087 27.068 155.347 27.068ZM163.234 44.6C163.234 48.56 165.214 50 168.706 50H171.658V47.228H169.246C167.23 47.228 166.51 46.544 166.51 44.6V32.972H171.658V30.272H166.51V25.304H163.234V30.272H160.678V32.972H163.234V44.6ZM175.627 50H178.903V30.272H175.627V50ZM177.319 27.068C178.507 27.068 179.479 26.096 179.479 24.836C179.479 23.576 178.507 22.604 177.319 22.604C176.059 22.604 175.087 23.576 175.087 24.836C175.087 26.096 176.059 27.068 177.319 27.068ZM203.207 40.1C203.207 33.872 198.851 29.948 193.235 29.948C187.655 29.948 183.263 33.872 183.263 40.1C183.263 46.364 187.511 50.324 193.091 50.324C198.707 50.324 203.207 46.364 203.207 40.1ZM186.611 40.1C186.611 35.132 189.743 32.792 193.199 32.792C196.583 32.792 199.859 35.132 199.859 40.1C199.859 45.104 196.511 47.444 193.091 47.444C189.671 47.444 186.611 45.104 186.611 40.1ZM221.95 50H225.19V38.372C225.19 32.72 221.698 29.912 217.126 29.912C214.462 29.912 212.086 31.028 210.79 33.08V30.272H207.514V50H210.79V39.092C210.79 34.844 213.094 32.756 216.442 32.756C219.754 32.756 221.95 34.808 221.95 38.84V50ZM238.354 24.908H230.542V50H238.354C246.598 50 251.674 45.284 251.674 37.508C251.674 29.732 246.598 24.908 238.354 24.908ZM233.818 47.3V27.572H238.354C244.906 27.572 248.326 31.388 248.326 37.508C248.326 43.628 244.906 47.3 238.354 47.3H233.818ZM254.771 40.064C254.771 46.184 258.839 50.324 264.095 50.324C267.731 50.324 270.287 48.452 271.475 46.328V50H274.787V30.272H271.475V33.872C270.323 31.82 267.803 29.948 264.131 29.948C258.839 29.948 254.771 33.908 254.771 40.064ZM271.475 40.1C271.475 44.744 268.379 47.444 264.779 47.444C261.179 47.444 258.119 44.708 258.119 40.064C258.119 35.42 261.179 32.792 264.779 32.792C268.379 32.792 271.475 35.528 271.475 40.1ZM287.811 46.256L281.619 30.272H277.983L285.939 49.784L282.051 59.288H285.435L297.315 30.272H293.931L287.811 46.256Z" fill="#63CD32"/>
<defs>
<clipPath id="clip0">
<rect width="60" height="73.9535" fill="white" transform="matrix(-1 0 0 1 60 0)"/>
</clipPath>
</defs>
</svg>
